/* XPM */
static char * catlooking_xpm[] = {
"32 32 77 1",
" 	c None",
".	c #631050",
"+	c #8F1774",
"@	c #000000",
"#	c #89166E",
"$	c #450B37",
"%	c #510D42",
"&	c #5C0F4A",
"*	c #0A0108",
"=	c #070106",
"-	c #190414",
";	c #C5209F",
">	c #4C0C3D",
",	c #050004",
"'	c #6F1259",
")	c #8F1773",
"!	c #090107",
"~	c #020001",
"{	c #801567",
"]	c #500D41",
"^	c #310828",
"/	c #20051A",
"(	c #6E1259",
"_	c #CF22A7",
":	c #010000",
"<	c #470B3A",
"[	c #62104F",
"}	c #290621",
"|	c #8C1771",
"1	c #170412",
"2	c #8E1772",
"3	c #3C0A30",
"4	c #99197B",
"5	c #21051B",
"6	c #781360",
"7	c #8C1770",
"8	c #671153",
"9	c #AD1C8B",
"0	c #0E020B",
"a	c #8B1770",
"b	c #1F0519",
"c	c #0F020C",
"d	c #5A0F48",
"e	c #781461",
"f	c #1B0416",
"g	c #34082A",
"h	c #801467",
"i	c #37092C",
"j	c #2B0723",
"k	c #97197A",
"l	c #010001",
"m	c #A41B84",
"n	c #7C1464",
"o	c #140310",
"p	c #641050",
"q	c #1D0417",
"r	c #500D40",
"s	c #23061D",
"t	c #38092D",
"u	c #280620",
"v	c #560E45",
"w	c #2C0724",
"x	c #7B1463",
"y	c #320729",
"z	c #7F1566",
"A	c #620F4F",
"B	c #460B38",
"C	c #771460",
"D	c #570D46",
"E	c #681254",
"F	c #5F0F4C",
"G	c #2F0726",
"H	c #1A0415",
"I	c #1E0418",
"J	c #22051B",
"K	c #2A0622",
"L	c #71125B",
"                                ",
"                   .            ",
"                  +@#$%         ",
"                  &@*=-;        ",
"                  >@@@@,'       ",
"                 )!@@@@@~{      ",
"                 ]@@@@@@@^      ",
"                 /@@@@@@@(      ",
"                _:@@@@:><       ",
"                [@@@@@}         ",
"               |@@@@@@1         ",
"             23@@@@@@@@         ",
"           45@@@@@@@@@@6        ",
"          7@@@@@@@@@@@@8        ",
"         90@@@@@@@@@@@@a        ",
"         b@@@@@@@@@@@@c         ",
"        d@@@@@@@@@@@@@e         ",
"        f@@@@@@@@@@@@g          ",
"       h@@@@@@@@@@@@i           ",
"       j@@@@@@@@@@@@k           ",
"       l@@@@@@@@@@@!m           ",
"      n@@@@@@@@@@@@o            ",
"      p@@@@@@@@@@@@q            ",
"      r@@@@@@@@@@@@s            ",
"      t@@@@@@@@@@@@u  v         ",
"      0@@@@@@@@@@@@w  -x        ",
"     4@@@@@@@@@@@@@y z@A        ",
"     B@@@@@@@@@@@@@fC-@         ",
"     D@@@@@@@@@@@@@@@@E         ",
"      FGHfffffffffIJKL          ",
"                                ",
"                                "};
